<?xml version="1.0" encoding="UTF-8"?>
<svg width="853px" height="140px" viewBox="0 0 853 140" version="1.1" xmlns="http://www.w3.org/2000/svg" xmlns:xlink="http://www.w3.org/1999/xlink">
    <!-- Generator: Sketch 64 (93537) - https://sketch.com -->
    <title>Group</title>
    <desc>Created with Sketch.</desc>
    <defs>
        <path d="M174.421875,0 L171.5625,0 L171.5625,7.29166667 C171.5625,9.69791667 169.632422,11.6666667 167.273438,11.6666667 L152.976562,11.6666667 C150.617578,11.6666667 148.6875,9.69791667 148.6875,7.29166667 L148.6875,0 L34.3125,0 L34.3125,7.29166667 C34.3125,9.69791667 32.3824219,11.6666667 30.0234375,11.6666667 L15.7265625,11.6666667 C13.3675781,11.6666667 11.4375,9.69791667 11.4375,7.29166667 L11.4375,0 L8.578125,0 C3.82441406,0 0,3.90104167 0,8.75 L0,131.25 C0,136.098958 3.82441406,140 8.578125,140 L11.4375,140 L11.4375,132.708333 C11.4375,130.302083 13.3675781,128.333333 15.7265625,128.333333 L30.0234375,128.333333 C32.3824219,128.333333 34.3125,130.302083 34.3125,132.708333 L34.3125,140 L148.6875,140 L148.6875,132.708333 C148.6875,130.302083 150.617578,128.333333 152.976562,128.333333 L167.273438,128.333333 C169.632422,128.333333 171.5625,130.302083 171.5625,132.708333 L171.5625,140 L174.421875,140 C179.175586,140 183,136.098958 183,131.25 L183,8.75 C183,3.90104167 179.175586,0 174.421875,0 Z M34.3125,112.291667 C34.3125,114.697917 32.3824219,116.666667 30.0234375,116.666667 L15.7265625,116.666667 C13.3675781,116.666667 11.4375,114.697917 11.4375,112.291667 L11.4375,97.7083333 C11.4375,95.3020833 13.3675781,93.3333333 15.7265625,93.3333333 L30.0234375,93.3333333 C32.3824219,93.3333333 34.3125,95.3020833 34.3125,97.7083333 L34.3125,112.291667 Z M34.3125,77.2916667 C34.3125,79.6979167 32.3824219,81.6666667 30.0234375,81.6666667 L15.7265625,81.6666667 C13.3675781,81.6666667 11.4375,79.6979167 11.4375,77.2916667 L11.4375,62.7083333 C11.4375,60.3020833 13.3675781,58.3333333 15.7265625,58.3333333 L30.0234375,58.3333333 C32.3824219,58.3333333 34.3125,60.3020833 34.3125,62.7083333 L34.3125,77.2916667 Z M34.3125,42.2916667 C34.3125,44.6979167 32.3824219,46.6666667 30.0234375,46.6666667 L15.7265625,46.6666667 C13.3675781,46.6666667 11.4375,44.6979167 11.4375,42.2916667 L11.4375,27.7083333 C11.4375,25.3020833 13.3675781,23.3333333 15.7265625,23.3333333 L30.0234375,23.3333333 C32.3824219,23.3333333 34.3125,25.3020833 34.3125,27.7083333 L34.3125,42.2916667 Z M131.53125,118.125 C131.53125,120.53125 129.601172,122.5 127.242188,122.5 L55.7578125,122.5 C53.3988281,122.5 51.46875,120.53125 51.46875,118.125 L51.46875,83.125 C51.46875,80.71875 53.3988281,78.75 55.7578125,78.75 L127.242188,78.75 C129.601172,78.75 131.53125,80.71875 131.53125,83.125 L131.53125,118.125 Z M131.53125,56.875 C131.53125,59.28125 129.601172,61.25 127.242188,61.25 L55.7578125,61.25 C53.3988281,61.25 51.46875,59.28125 51.46875,56.875 L51.46875,21.875 C51.46875,19.46875 53.3988281,17.5 55.7578125,17.5 L127.242188,17.5 C129.601172,17.5 131.53125,19.46875 131.53125,21.875 L131.53125,56.875 Z M171.5625,112.291667 C171.5625,114.697917 169.632422,116.666667 167.273438,116.666667 L152.976562,116.666667 C150.617578,116.666667 148.6875,114.697917 148.6875,112.291667 L148.6875,97.7083333 C148.6875,95.3020833 150.617578,93.3333333 152.976562,93.3333333 L167.273438,93.3333333 C169.632422,93.3333333 171.5625,95.3020833 171.5625,97.7083333 L171.5625,112.291667 Z M171.5625,77.2916667 C171.5625,79.6979167 169.632422,81.6666667 167.273438,81.6666667 L152.976562,81.6666667 C150.617578,81.6666667 148.6875,79.6979167 148.6875,77.2916667 L148.6875,62.7083333 C148.6875,60.3020833 150.617578,58.3333333 152.976562,58.3333333 L167.273438,58.3333333 C169.632422,58.3333333 171.5625,60.3020833 171.5625,62.7083333 L171.5625,77.2916667 Z M171.5625,42.2916667 C171.5625,44.6979167 169.632422,46.6666667 167.273438,46.6666667 L152.976562,46.6666667 C150.617578,46.6666667 148.6875,44.6979167 148.6875,42.2916667 L148.6875,27.7083333 C148.6875,25.3020833 150.617578,23.3333333 152.976562,23.3333333 L167.273438,23.3333333 C169.632422,23.3333333 171.5625,25.3020833 171.5625,27.7083333 L171.5625,42.2916667 Z" id="path-1"></path>
    </defs>
    <g id="Page-1" stroke="none" stroke-width="1" fill="none" fill-rule="evenodd">
        <g id="Desktop-HD" transform="translate(-182.000000, -205.000000)">
            <g id="Group" transform="translate(182.000000, 205.000000)">
                <g id="film">
                    <mask id="mask-2" fill="white">
                        <use xlink:href="#path-1"></use>
                    </mask>
                    <use id="Mask" fill="#FFFFFF" fill-rule="nonzero" xlink:href="#path-1"></use>
                </g>
                <path d="M259.695122,119 C267.654472,119 274.361789,116.620552 279.817073,111.861657 C285.272358,107.102762 288,100.853933 288,93.1151685 C288,88.7565543 286.926829,84.7537453 284.780488,81.1067416 C283.886179,79.5945693 282.634146,78.1491105 281.02439,76.7703652 C279.414634,75.3916199 277.581301,74.0351124 275.52439,72.7008427 C273.46748,71.366573 268.772358,69.4985955 261.439024,67.0969101 L261.439024,67.0969101 L256.878049,65.6292135 C251.869919,63.8501873 247.979675,61.6041667 245.207317,58.8911517 C242.434959,56.1781367 241.04878,52.3087547 241.04878,47.2830056 C241.04878,42.2572566 242.636179,37.9208801 245.810976,34.2738764 C248.985772,30.6268727 253.703252,28.8033708 259.963415,28.8033708 C266.223577,28.8033708 271.902439,31.2050562 277,36.008427 L277,36.008427 L280.085366,32.005618 C273.914634,26.6685393 266.939024,24 259.158537,24 C251.378049,24 245.47561,26.5128745 241.45122,31.5386236 C237.426829,36.5643727 235.593496,42.3684457 235.95122,48.9508427 C236.487805,59.625 243.463415,66.9634831 256.878049,70.9662921 C262.333333,72.656367 266.804878,74.2574906 270.292683,75.7696629 C273.243902,77.1928839 275.457317,78.593867 276.932927,79.9726124 C278.408537,81.3513577 279.794715,83.241573 281.091463,85.6432584 C282.388211,88.0449438 283.036585,90.6690075 283.036585,93.5154494 C283.036585,99.6530899 280.666667,104.634363 275.926829,108.45927 C271.186992,112.284176 265.642276,114.196629 259.292683,114.196629 C251.065041,114.196629 243.463415,110.549625 236.487805,103.255618 L236.487805,103.255618 L233,106.858146 C240.869919,114.952715 249.768293,119 259.695122,119 Z M325,121 L352,68 L346.761194,68 L325,111.012563 L303.238806,68 L298,68 L325,121 Z M381.69837,119 C388.711051,119 394.702899,116.606138 399.673913,111.818414 L399.673913,111.818414 L396.345109,109.158568 C392.439312,112.793691 387.912138,114.611253 382.763587,114.611253 C377.615036,114.611253 373.331975,113.414322 369.914402,111.02046 C366.49683,108.626598 363.98913,105.434783 362.391304,101.445013 L362.391304,101.445013 L405,84.9539642 C403.224638,79.5456095 400.361866,75.2011935 396.411685,71.9207161 C392.461504,68.6402387 387.645833,67 381.964674,67 C374.774457,67 368.649457,69.5490196 363.589674,74.6470588 C358.529891,79.745098 356,85.8627451 356,93 C356,100.137255 358.529891,106.254902 363.589674,111.352941 C368.649457,116.45098 374.685688,119 381.69837,119 Z M362.263889,97 C362.087963,95.2037997 362,93.8117444 362,92.8238342 C362,86.537133 363.957176,81.328152 367.871528,77.1968912 C371.78588,73.0656304 376.777778,71 382.847222,71 C390.675926,71 396.393519,74.6822107 400,82.0466321 L400,82.0466321 L362.263889,97 Z M420,118 L420,18 L415,18 L415,118 L420,118 Z M442.631336,118 L442.631336,72.6946688 L458,72.6946688 L458,68.3231018 L442.631336,68.3231018 L442.631336,36 L437.686636,36 L437.686636,68.3231018 L429,68.3231018 L429,72.6946688 L437.686636,72.6946688 L437.686636,118 L442.631336,118 Z M483.69837,119 C490.711051,119 496.702899,116.606138 501.673913,111.818414 L501.673913,111.818414 L498.345109,109.158568 C494.439312,112.793691 489.912138,114.611253 484.763587,114.611253 C479.615036,114.611253 475.331975,113.414322 471.914402,111.02046 C468.49683,108.626598 465.98913,105.434783 464.391304,101.445013 L464.391304,101.445013 L507,84.9539642 C505.224638,79.5456095 502.361866,75.2011935 498.411685,71.9207161 C494.461504,68.6402387 489.645833,67 483.964674,67 C476.774457,67 470.649457,69.5490196 465.589674,74.6470588 C460.529891,79.745098 458,85.8627451 458,93 C458,100.137255 460.529891,106.254902 465.589674,111.352941 C470.649457,116.45098 476.685688,119 483.69837,119 Z M463.263889,97 C463.087963,95.2037997 463,93.8117444 463,92.8238342 C463,86.537133 464.957176,81.328152 468.871528,77.1968912 C472.78588,73.0656304 477.777778,71 483.847222,71 C491.675926,71 497.393519,74.6822107 501,82.0466321 L501,82.0466321 L463.263889,97 Z M564.953552,118 L564.953552,37.5382514 L564.551913,33.2540984 L566.961749,36.8688525 L609,91.7595628 L651.038251,36.8688525 L653.448087,33.2540984 L653.046448,37.5382514 L653.046448,118 L658,118 L658,20 L609,83.5928962 L560,20 L560,118 L564.953552,118 Z M695,119 C702.225916,119 708.365729,116.45098 713.419437,111.352941 C718.473146,106.254902 721,100.11509 721,92.9335038 C721,85.7519182 718.473146,79.6342711 713.419437,74.5805627 C708.365729,69.5268542 702.225916,67 695,67 C687.774084,67 681.634271,69.5490196 676.580563,74.6470588 C671.526854,79.745098 669,85.8627451 669,93 C669,100.137255 671.526854,106.254902 676.580563,111.352941 C681.634271,116.45098 687.774084,119 695,119 Z M695,115 C688.861199,115 683.826498,112.927179 679.895899,108.781538 C675.9653,104.635897 674,99.52 674,93.4338462 C674,87.2594872 675.9653,82.1435897 679.895899,78.0861538 C683.826498,74.0287179 688.861199,72 695,72 C701.138801,72 706.173502,74.0287179 710.104101,78.0861538 C714.0347,82.1435897 716,87.2374359 716,93.3676923 C716,99.4979487 714.0347,104.635897 710.104101,108.781538 C706.173502,112.927179 701.138801,115 695,115 Z M754,121 L781,68 L775.761194,68 L754,111.012563 L732.238806,68 L727,68 L754,121 Z M795,53 C796.058201,53 796.989418,52.578125 797.793651,51.734375 C798.597884,50.890625 799,49.859375 799,48.640625 C799,47.328125 798.597884,46.2265625 797.793651,45.3359375 C796.989418,44.4453125 796.079365,44 795.063492,44 C794.047619,44 793.116402,44.4453125 792.269841,45.3359375 C791.42328,46.2265625 791,47.3046875 791,48.5703125 C791,49.8359375 791.402116,50.890625 792.206349,51.734375 C793.010582,52.578125 793.941799,53 795,53 Z M797,118 L797,68 L792,68 L792,118 L797,118 Z M829.69837,119 C836.711051,119 842.702899,116.606138 847.673913,111.818414 L847.673913,111.818414 L844.345109,109.158568 C840.439312,112.793691 835.912138,114.611253 830.763587,114.611253 C825.615036,114.611253 821.331975,113.414322 817.914402,111.02046 C814.49683,108.626598 811.98913,105.434783 810.391304,101.445013 L810.391304,101.445013 L853,84.9539642 C851.224638,79.5456095 848.361866,75.2011935 844.411685,71.9207161 C840.461504,68.6402387 835.645833,67 829.964674,67 C822.774457,67 816.649457,69.5490196 811.589674,74.6470588 C806.529891,79.745098 804,85.8627451 804,93 C804,100.137255 806.529891,106.254902 811.589674,111.352941 C816.649457,116.45098 822.685688,119 829.69837,119 Z M809.263889,97 C809.087963,95.2037997 809,93.8117444 809,92.8238342 C809,86.537133 810.957176,81.328152 814.871528,77.1968912 C818.78588,73.0656304 823.777778,71 829.847222,71 C837.675926,71 843.393519,74.6822107 847,82.0466321 L847,82.0466321 L809.263889,97 Z" id="SvelteMovie" fill="#FFFFFF" fill-rule="nonzero"></path>
            </g>
        </g>
    </g>
</svg>